<svg xmlns="http://www.w3.org/2000/svg" xmlns:xlink="http://www.w3.org/1999/xlink" version="1.1" width="256" height="256" viewBox="0 0 256 256" xml:space="preserve">

<defs>
</defs>
<g style="stroke: none; stroke-width: 0; stroke-dasharray: none; stroke-linecap: butt; stroke-linejoin: miter; stroke-miterlimit: 10; fill: none; fill-rule: nonzero; opacity: 1;" transform="translate(1.4065934065934016 1.4065934065934016) scale(2.81 2.81)" >
	<path d="M 70.829 47.945 C 69.366 60.917 58.363 71 45 71 c -14.359 0 -26 -11.641 -26 -26 c 0 -13.363 10.083 -24.366 23.055 -25.829 V 0.055 c -23.453 1.545 -42 21.046 -42 44.889 c 0 24.853 20.147 45 45 45 c 23.844 0 43.344 -18.548 44.889 -42 H 70.829 z" style="stroke: none; stroke-width: 1; stroke-dasharray: none; stroke-linecap: butt; stroke-linejoin: miter; stroke-miterlimit: 10; fill: rgb(255,255,255); fill-rule: nonzero; opacity: 1;" transform=" matrix(1 0 0 1 0 0) " stroke-linecap="round" />
	<path d="M 70.815 41.945 h 19.129 c -1.48 -22.46 -19.43 -40.409 -41.889 -41.889 v 19.129 C 59.971 20.58 69.42 30.029 70.815 41.945 z" style="stroke: none; stroke-width: 1; stroke-dasharray: none; stroke-linecap: butt; stroke-linejoin: miter; stroke-miterlimit: 10; fill: rgb(255,255,255); fill-rule: nonzero; opacity: 1;" transform=" matrix(1 0 0 1 0 0) " stroke-linecap="round" />
	<path d="M 42.802 40.787 c 0.278 0.742 0.877 1.296 1.645 1.522 l 0.145 0.048 l 2.36 0.864 c 2.156 0.66 3.841 2.241 4.631 4.349 c 1.391 3.713 -0.497 7.869 -4.212 9.263 c -0.01 0.004 -0.02 0.005 -0.03 0.008 v 0.817 C 47.342 58.952 46.293 60 45 60 s -2.341 -1.048 -2.341 -2.341 v -0.714 c -2.027 -0.649 -3.75 -2.18 -4.553 -4.322 c -0.454 -1.211 0.16 -2.561 1.371 -3.015 c 1.211 -0.449 2.562 0.16 3.015 1.371 c 0.236 0.629 0.701 1.127 1.313 1.405 c 0.611 0.278 1.295 0.3 1.923 0.065 c 1.296 -0.486 1.957 -1.938 1.47 -3.236 c -0.278 -0.742 -0.878 -1.298 -1.645 -1.523 l -0.145 -0.048 l -2.36 -0.864 c -2.156 -0.66 -3.841 -2.24 -4.631 -4.347 c -1.393 -3.716 0.497 -7.872 4.212 -9.265 c 0.01 -0.004 0.021 -0.006 0.031 -0.01 v -0.814 C 42.659 31.048 43.707 30 45 30 s 2.341 1.048 2.341 2.341 v 0.715 c 2.025 0.649 3.748 2.179 4.551 4.321 c 0.455 1.211 -0.159 2.56 -1.37 3.014 c -1.204 0.454 -2.56 -0.158 -3.014 -1.37 c -0.487 -1.298 -1.941 -1.957 -3.238 -1.471 C 42.974 38.036 42.315 39.489 42.802 40.787 z" style="stroke: none; stroke-width: 1; stroke-dasharray: none; stroke-linecap: butt; stroke-linejoin: miter; stroke-miterlimit: 10; fill: rgb(255,255,255); fill-rule: nonzero; opacity: 1;" transform=" matrix(1 0 0 1 0 0) " stroke-linecap="round" />
</g>
</svg>